<?xml version="1.0" standalone="no"?>
<!DOCTYPE svg PUBLIC "-//W3C//DTD SVG 20010904//EN"
 "http://www.w3.org/TR/2001/REC-SVG-20010904/DTD/svg10.dtd">
<svg version="1.0" xmlns="http://www.w3.org/2000/svg"
 width="41.000000pt" height="41.000000pt" viewBox="0 0 41.000000 41.000000"
 preserveAspectRatio="xMidYMid meet">

<g transform="translate(0.000000,41.000000) scale(0.100000,-0.100000)"
fill="#000000" stroke="none">
<path d="M235 369 c-4 -6 -17 -14 -29 -19 l-21 -9 22 0 c13 -1 27 8 33 19 11
21 6 28 -5 9z"/>
<path d="M30 316 c0 -2 7 -6 15 -10 8 -3 15 -1 15 4 0 6 -7 10 -15 10 -8 0
-15 -2 -15 -4z"/>
<path d="M102 238 c3 -80 4 -83 31 -96 37 -18 107 -19 146 -2 l31 12 0 84 0
84 -105 0 -106 0 3 -82z m173 37 c77 -77 -48 -186 -129 -112 -59 52 -19 137
64 137 30 0 47 -6 65 -25z"/>
<path d="M180 282 c0 -5 12 -19 27 -33 14 -13 23 -19 19 -12 -3 6 -2 14 4 18
13 8 13 35 0 35 -5 0 -9 -6 -7 -12 1 -7 -5 -13 -13 -13 -8 0 -14 6 -12 13 1 6
-2 12 -8 12 -5 0 -10 -4 -10 -8z"/>
<path d="M151 267 c-12 -16 -2 -28 33 -41 16 -5 17 -4 6 9 -7 8 -20 15 -29 15
-14 0 -14 2 -1 10 8 5 12 12 9 15 -4 3 -11 -1 -18 -8z"/>
<path d="M254 272 c4 -7 2 -20 -6 -29 -12 -15 -11 -15 10 -4 19 10 22 9 22 -8
0 -11 -12 -32 -27 -46 -22 -19 -24 -25 -11 -25 21 0 48 37 48 66 0 11 -10 29
-22 40 -12 10 -18 13 -14 6z"/>
<path d="M131 220 c3 -20 11 -26 41 -31 31 -5 36 -3 27 8 -6 7 -16 13 -22 13
-6 0 -19 8 -30 17 -18 17 -19 17 -16 -7z"/>
<path d="M350 310 c0 -5 7 -7 15 -4 8 4 15 8 15 10 0 2 -7 4 -15 4 -8 0 -15
-4 -15 -10z"/>
<path d="M47 259 c7 -7 15 -10 18 -7 3 3 -2 9 -12 12 -14 6 -15 5 -6 -5z"/>
<path d="M350 260 c-9 -6 -10 -10 -3 -10 6 0 15 5 18 10 8 12 4 12 -15 0z"/>
<path d="M20 235 c-7 -9 -10 -18 -7 -21 3 -3 10 4 17 15 13 25 8 27 -10 6z"/>
<path d="M380 232 c6 -13 14 -21 18 -18 3 4 -2 14 -12 24 -18 16 -18 16 -6 -6z"/>
<path d="M47 169 c12 -12 24 -21 27 -18 2 2 -8 13 -22 23 l-27 19 22 -24z"/>
<path d="M348 170 c-15 -17 -15 -19 0 -25 9 -3 13 -3 9 1 -4 4 0 16 10 26 9
10 12 18 7 17 -5 0 -17 -9 -26 -19z"/>
<path d="M105 110 c4 -6 11 -8 16 -5 14 9 11 15 -7 15 -8 0 -12 -5 -9 -10z"/>
<path d="M288 113 c7 -3 16 -2 19 1 4 3 -2 6 -13 5 -11 0 -14 -3 -6 -6z"/>
<path d="M143 98 c-12 -20 -12 -38 -1 -38 6 0 8 7 4 15 -3 8 2 19 12 24 9 6
12 11 5 11 -6 0 -15 -6 -20 -12z"/>
<path d="M252 99 c10 -5 15 -16 12 -24 -4 -8 -2 -15 4 -15 6 0 9 6 8 13 -3 20
-16 37 -29 37 -7 0 -4 -5 5 -11z"/>
<path d="M30 49 c0 -12 31 -19 47 -10 12 6 8 9 -16 13 -17 2 -31 1 -31 -3z"/>
<path d="M360 50 c-13 -8 -12 -10 3 -10 9 0 17 5 17 10 0 12 -1 12 -20 0z"/>
<path d="M154 25 c-17 -13 -16 -13 16 -5 21 6 47 6 67 1 18 -5 31 -6 28 -1 -3
5 3 10 12 12 10 2 -9 5 -43 6 -40 1 -67 -3 -80 -13z"/>
</g>
</svg>
